<?xml version="1.0" encoding="UTF-8"?>
<!-- Phone Front • TITANIUM • Sensor: hole | Generated 2025-11-04 -->
<svg xmlns="http://www.w3.org/2000/svg" viewBox="0 0 1400 2400" width="1400" height="2400" style="--frameTop:#c9ccd1; --frameSide:#9ea3aa; --frameEdge:#71757b; --bezel:#0a0a0c; --glassTop:#1f1f22; --glassBottom:#0b0b0d; --bg:#0b0c10; --text:#e9edf2; --accent:#4da3ff;">
      <style><![CDATA[
      /* Variables are applied on the root element via CSS custom properties. */
      .uiText { font-family: system-ui, -apple-system, Segoe UI, Roboto, Ubuntu, Cantarell, "Helvetica Neue", Arial, sans-serif; }
      .btnFill { fill:#6e737a; }
      .sensorFill { fill:#3b3f46; }
      /* higher contrast text — crisp on dark glass */
      .hiContrast {
        paint-order: stroke fill;
        stroke: rgba(0,0,0,.65);
        stroke-width: 3px;
      }
    ]]></style>
  <defs>  <linearGradient id="gradFrame" x1="0" y1="0" x2="0" y2="1">
    <stop offset="0%" stop-color="var(--frameTop)"/>
    <stop offset="55%" stop-color="var(--frameSide)"/>
    <stop offset="100%" stop-color="var(--frameEdge)"/>
  </linearGradient>
  <linearGradient id="gradGlass" x1="0" y1="0" x2="0" y2="1">
    <stop offset="0%" stop-color="var(--glassTop)"/>
    <stop offset="100%" stop-color="var(--glassBottom)"/>
  </linearGradient>
  <filter id="innerShadow" x="-20%" y="-20%" width="140%" height="140%">
    <feOffset dy="8"/>
    <feGaussianBlur stdDeviation="12" result="b"/>
    <feComposite in="SourceAlpha" operator="arithmetic" k2="-1" k3="1"/>
    <feColorMatrix type="matrix" values="0 0 0 0 0  0 0 0 0 0  0 0 0 0 0  0 0 0 .55 0"/>
    <feBlend in2="SourceGraphic" mode="multiply"/>
  </filter>
  <filter id="drop" x="-20%" y="-20%" width="140%" height="140%">
    <feDropShadow dx="0" dy="24" stdDeviation="32" flood-color="#000" flood-opacity=".25"/>
  </filter>
  <linearGradient id="gloss" x1="0" y1="0" x2="1" y2="1">
    <stop offset="0%" stop-color="#fff" stop-opacity=".18"/>
    <stop offset="30%" stop-color="#fff" stop-opacity=".05"/>
    <stop offset="100%" stop-color="#fff" stop-opacity="0"/>
  </linearGradient>
  <linearGradient id="reflect" x1="0" y1="0" x2="0" y2="1">
    <stop offset="0%" stop-color="#fff" stop-opacity=".12"/>
    <stop offset="65%" stop-color="#fff" stop-opacity=".02"/>
    <stop offset="100%" stop-color="#fff" stop-opacity="0"/>
  </linearGradient>
  <radialGradient id="brandGlow" cx="50%" cy="38%" r="60%">
    <stop offset="0%" stop-color="var(--accent)" stop-opacity=".25"/>
    <stop offset="100%" stop-color="var(--accent)" stop-opacity="0"/>
  </radialGradient></defs>
  
  <g transform="translate(200,110) scale(1.0)">
        <g filter="url(#drop)">
      <rect x="0" y="0" rx="112" ry="112" width="1000" height="2180" fill="url(#gradFrame)"/>
      <rect x="30" y="30" rx="96" ry="96" width="940" height="2120" fill="var(--bezel)"/>
      <rect x="42" y="42" rx="84" ry="84" width="916" height="2096" fill="url(#gradGlass)" filter="url(#innerShadow)"/>
      <rect x="84" y="84" width="832" height="180" rx="48" fill="url(#reflect)"/>
      <path d="M120,280 C560,40 760,160 980,0 L980,0 L980,2120 L120,2120 Z" fill="url(#gloss)" opacity=".4"/>
      <rect x="-8" y="520" width="12" height="170" rx="6" class="btnFill"/>
      <rect x="-8" y="720" width="12" height="170" rx="6" class="btnFill"/>
      <rect x="996" y="760" width="12" height="220" rx="6" class="btnFill"/>
      <circle cx="605" cy="90" r="9" class="sensorFill" opacity=".85"/>
    </g>
          <rect x="42" y="42" rx="84" ry="84" width="916" height="2096" fill="url(#brandGlow)"/>
      <g transform="translate(120, 880)" class="uiText hiContrast">
        <text x="0" y="0" font-size="120" font-weight="800" fill="var(--text)">MobileFirst</text>
        <text x="0" y="140" font-size="88" font-weight="700" fill="var(--text)">Pro Max</text>
        <text x="0" y="250" font-size="44" font-weight="500" fill="var(--text)" opacity=".85">6.9 in edge-to-edge • 120Hz • Titanium-tone frame</text>
      </g>
      <g transform="translate(260, 1420)" class="uiText hiContrast">
        <rect x="0" y="0" rx="28" ry="28" width="480" height="96" fill="rgba(0,0,0,0.28)" stroke="rgba(255,255,255,0.18)"/>
        <text x="240" y="64" text-anchor="middle" font-size="42" font-weight="700" fill="var(--text)">Preorder</text>
      </g>
  </g>
</svg>
