<?xml version="1.0" encoding="UTF-8"?>
<!-- Phone Hero • Titanium • Pill -->
<svg xmlns="http://www.w3.org/2000/svg" viewBox="0 0 1400 2400" width="1400" height="2400" style="--frameTop:#c9ccd1; --frameSide:#9ea3aa; --frameEdge:#71757b; --bezel:#0a0a0c; --glassTop:#1f1f22; --glassBottom:#0b0b0d; --bg:#0b0c10; --text:#e9edf2; --accent:#4da3ff;">
      <style><![CDATA[
      /* Variables are applied on the root element via CSS custom properties. */
      .uiText { font-family: system-ui, -apple-system, Segoe UI, Roboto, Ubuntu, Cantarell, "Helvetica Neue", Arial, sans-serif; }
      .btnFill { fill:#6e737a; }
      .sensorFill { fill:#3b3f46; }
      /* higher contrast text — crisp on dark glass */
      .hiContrast {
        paint-order: stroke fill;
        stroke: rgba(0,0,0,.65);
        stroke-width: 3px;
      }
    ]]></style>
  <defs>  <linearGradient id="gradFrame" x1="0" y1="0" x2="0" y2="1">
    <stop offset="0%" stop-color="#c9ccd1"/>
    <stop offset="55%" stop-color="#9ea3aa"/>
    <stop offset="100%" stop-color="#71757b"/>
  </linearGradient>
  <linearGradient id="gradGlass" x1="0" y1="0" x2="0" y2="1">
    <stop offset="0%" stop-color="#1f1f22"/>
    <stop offset="100%" stop-color="#0b0b0d"/>
  </linearGradient>
  <filter id="innerShadow" x="-20%" y="-20%" width="140%" height="140%">
    <feOffset dy="8"/>
    <feGaussianBlur stdDeviation="12" result="b"/>
    <feComposite in="SourceAlpha" operator="arithmetic" k2="-1" k3="1"/>
    <feColorMatrix type="matrix" values="0 0 0 0 0  0 0 0 0 0  0 0 0 0 0  0 0 0 .55 0"/>
    <feBlend in2="SourceGraphic" mode="multiply"/>
  </filter>
  <filter id="drop" x="-20%" y="-20%" width="140%" height="140%">
    <feDropShadow dx="0" dy="24" stdDeviation="32" flood-color="#000" flood-opacity=".25"/>
  </filter>
  <linearGradient id="gloss" x1="0" y1="0" x2="1" y2="1">
    <stop offset="0%" stop-color="#fff" stop-opacity=".18"/>
    <stop offset="30%" stop-color="#fff" stop-opacity=".05"/>
    <stop offset="100%" stop-color="#fff" stop-opacity="0"/>
  </linearGradient>
  <linearGradient id="reflect" x1="0" y1="0" x2="0" y2="1">
    <stop offset="0%" stop-color="#fff" stop-opacity=".12"/>
    <stop offset="65%" stop-color="#fff" stop-opacity=".02"/>
    <stop offset="100%" stop-color="#fff" stop-opacity="0"/>
  </linearGradient>
  <radialGradient id="brandGlow" cx="50%" cy="38%" r="60%">
    <stop offset="0%" stop-color="#4da3ff" stop-opacity=".25"/>
    <stop offset="100%" stop-color="#4da3ff" stop-opacity="0"/>
  </radialGradient></defs>
  
  <g opacity=".45" transform="translate(420,240) rotate(-8) scale(0.9) translate(-300,-100)">    <g filter="url(#drop)">
      <rect x="0" y="0" rx="112" ry="112" width="1000" height="2180" fill="url(#gradFrame)"/>
      <rect x="20" y="20" rx="100" ry="100" width="960" height="2140" fill="rgba(255,255,255,0.03)"/>
      <!-- Camera island (generic, distinct layout) -->
      <g transform="translate(140,160)">
        <rect x="0" y="0" rx="56" ry="56" width="320" height="280" fill="#14171b" opacity=".9"/>
        <circle cx="90" cy="90" r="54" fill="#0c0f12" stroke="#1f2329" stroke-width="6"/>
        <circle cx="230" cy="90" r="54" fill="#0c0f12" stroke="#1f2329" stroke-width="6"/>
        <circle cx="160" cy="200" r="54" fill="#0c0f12" stroke="#1f2329" stroke-width="6"/>
        <circle cx="300" cy="210" r="22" fill="#fbf7d6"/>
        <circle cx="36" cy="212" r="10" fill="#2a2f36"/>
      </g>
      <rect x="-8" y="520" width="12" height="170" rx="6" class="btnFill"/>
      <rect x="-8" y="720" width="12" height="170" rx="6" class="btnFill"/>
      <rect x="996" y="760" width="12" height="220" rx="6" class="btnFill"/>
    </g>
    <g class="uiText hiContrast" transform="translate(500, 1120)">
      <text text-anchor="middle" font-size="72" fill="#e9edf2">MobileFirst</text>
      <text y="86" text-anchor="middle" font-size="44" fill="#e9edf2" opacity=".9">Pro Max</text>
    </g></g>
  <g transform="translate(680,160) skewX(-8) rotate(12) scale(1.02) translate(-300,-100)">    <g filter="url(#drop)">
      <rect x="0" y="0" rx="112" ry="112" width="1000" height="2180" fill="url(#gradFrame)"/>
      <rect x="30" y="30" rx="96" ry="96" width="940" height="2120" fill="#0a0a0c"/>
      <rect x="42" y="42" rx="84" ry="84" width="916" height="2096" fill="url(#gradGlass)" filter="url(#innerShadow)"/>
      <rect x="84" y="84" width="832" height="180" rx="48" fill="url(#reflect)"/>
      <path d="M120,280 C560,40 760,160 980,0 L980,0 L980,2120 L120,2120 Z" fill="url(#gloss)" opacity=".4"/>
      <rect x="-8" y="520" width="12" height="170" rx="6" class="btnFill"/>
      <rect x="-8" y="720" width="12" height="170" rx="6" class="btnFill"/>
      <rect x="996" y="760" width="12" height="220" rx="6" class="btnFill"/>
      <rect x="560" y="82" width="80" height="16" rx="8" class="sensorFill" opacity=".75"/>
    </g>
          <rect x="42" y="42" rx="84" ry="84" width="916" height="2096" fill="url(#brandGlow)"/>
      <g transform="translate(120, 880)" class="uiText hiContrast">
        <text x="0" y="0" font-size="120" font-weight="800" fill="#e9edf2">MobileFirst</text>
        <text x="0" y="140" font-size="88" font-weight="700" fill="#e9edf2">Pro Max</text>
        <text x="0" y="250" font-size="44" font-weight="500" fill="#e9edf2" opacity=".85">6.9 in edge-to-edge • 120Hz • Titanium-tone frame</text>
      </g>
      <g transform="translate(260, 1420)" class="uiText hiContrast">
        <rect x="0" y="0" rx="28" ry="28" width="480" height="96" fill="rgba(0,0,0,0.28)" stroke="rgba(255,255,255,0.18)"/>
        <text x="240" y="64" text-anchor="middle" font-size="42" font-weight="700" fill="#e9edf2">Preorder</text>
      </g></g>
</svg>
